<?xml version="1.0" encoding="utf-8" standalone="no"?>
<!DOCTYPE svg PUBLIC "-//W3C//DTD SVG 1.1//EN"
  "http://www.w3.org/Graphics/SVG/1.1/DTD/svg11.dtd">
<svg xmlns:xlink="http://www.w3.org/1999/xlink" width="946.684687pt" height="281.242125pt" viewBox="0 0 946.684687 281.242125" xmlns="http://www.w3.org/2000/svg" version="1.1">
 <metadata>
  <rdf:RDF xmlns:dc="http://purl.org/dc/elements/1.1/" xmlns:cc="http://creativecommons.org/ns#" xmlns:rdf="http://www.w3.org/1999/02/22-rdf-syntax-ns#">
   <cc:Work>
    <dc:type rdf:resource="http://purl.org/dc/dcmitype/StillImage"/>
    <dc:date>2024-02-01T18:13:34.663611</dc:date>
    <dc:format>image/svg+xml</dc:format>
    <dc:creator>
     <cc:Agent>
      <dc:title>Matplotlib v3.7.2, https://matplotlib.org/</dc:title>
     </cc:Agent>
    </dc:creator>
   </cc:Work>
  </rdf:RDF>
 </metadata>
 <defs>
  <style type="text/css">*{stroke-linejoin: round; stroke-linecap: butt}</style>
 </defs>
 <g id="figure_1">
  <g id="patch_1">
   <path d="M 0 281.242125 
L 946.684687 281.242125 
L 946.684687 0 
L 0 0 
z
" style="fill: #ffffff"/>
  </g>
  <g id="axes_1">
   <g id="patch_2">
    <path d="M 46.684688 240.782437 
L 939.484687 240.782437 
L 939.484687 19.022437 
L 46.684688 19.022437 
z
" style="fill: #ffffff"/>
   </g>
   <g id="matplotlib.axis_1">
    <g id="xtick_1">
     <g id="line2d_1">
      <path d="M 46.684688 240.782437 
L 46.684688 19.022437 
" clip-path="url(#p5cfd217405)" style="fill: none; stroke: #cccccc; stroke-width: 0.8; stroke-linecap: round"/>
     </g>
     <g id="text_1">
      <!-- 0 -->
      <g style="fill: #262626" transform="translate(43.503438 255.380875) scale(0.1 -0.1)">
       <defs>
        <path id="DejaVuSans-30" d="M 2034 4250 
Q 1547 4250 1301 3770 
Q 1056 3291 1056 2328 
Q 1056 1369 1301 889 
Q 1547 409 2034 409 
Q 2525 409 2770 889 
Q 3016 1369 3016 2328 
Q 3016 3291 2770 3770 
Q 2525 4250 2034 4250 
z
M 2034 4750 
Q 2819 4750 3233 4129 
Q 3647 3509 3647 2328 
Q 3647 1150 3233 529 
Q 2819 -91 2034 -91 
Q 1250 -91 836 529 
Q 422 1150 422 2328 
Q 422 3509 836 4129 
Q 1250 4750 2034 4750 
z
" transform="scale(0.015625)"/>
       </defs>
       <use xlink:href="#DejaVuSans-30"/>
      </g>
     </g>
    </g>
    <g id="xtick_2">
     <g id="line2d_2">
      <path d="M 236.642134 240.782437 
L 236.642134 19.022437 
" clip-path="url(#p5cfd217405)" style="fill: none; stroke: #cccccc; stroke-width: 0.8; stroke-linecap: round"/>
     </g>
     <g id="text_2">
      <!-- 100 -->
      <g style="fill: #262626" transform="translate(227.098384 255.380875) scale(0.1 -0.1)">
       <defs>
        <path id="DejaVuSans-31" d="M 794 531 
L 1825 531 
L 1825 4091 
L 703 3866 
L 703 4441 
L 1819 4666 
L 2450 4666 
L 2450 531 
L 3481 531 
L 3481 0 
L 794 0 
L 794 531 
z
" transform="scale(0.015625)"/>
       </defs>
       <use xlink:href="#DejaVuSans-31"/>
       <use xlink:href="#DejaVuSans-30" x="63.623047"/>
       <use xlink:href="#DejaVuSans-30" x="127.246094"/>
      </g>
     </g>
    </g>
    <g id="xtick_3">
     <g id="line2d_3">
      <path d="M 426.599581 240.782437 
L 426.599581 19.022437 
" clip-path="url(#p5cfd217405)" style="fill: none; stroke: #cccccc; stroke-width: 0.8; stroke-linecap: round"/>
     </g>
     <g id="text_3">
      <!-- 200 -->
      <g style="fill: #262626" transform="translate(417.055831 255.380875) scale(0.1 -0.1)">
       <defs>
        <path id="DejaVuSans-32" d="M 1228 531 
L 3431 531 
L 3431 0 
L 469 0 
L 469 531 
Q 828 903 1448 1529 
Q 2069 2156 2228 2338 
Q 2531 2678 2651 2914 
Q 2772 3150 2772 3378 
Q 2772 3750 2511 3984 
Q 2250 4219 1831 4219 
Q 1534 4219 1204 4116 
Q 875 4013 500 3803 
L 500 4441 
Q 881 4594 1212 4672 
Q 1544 4750 1819 4750 
Q 2544 4750 2975 4387 
Q 3406 4025 3406 3419 
Q 3406 3131 3298 2873 
Q 3191 2616 2906 2266 
Q 2828 2175 2409 1742 
Q 1991 1309 1228 531 
z
" transform="scale(0.015625)"/>
       </defs>
       <use xlink:href="#DejaVuSans-32"/>
       <use xlink:href="#DejaVuSans-30" x="63.623047"/>
       <use xlink:href="#DejaVuSans-30" x="127.246094"/>
      </g>
     </g>
    </g>
    <g id="xtick_4">
     <g id="line2d_4">
      <path d="M 616.557028 240.782437 
L 616.557028 19.022437 
" clip-path="url(#p5cfd217405)" style="fill: none; stroke: #cccccc; stroke-width: 0.8; stroke-linecap: round"/>
     </g>
     <g id="text_4">
      <!-- 300 -->
      <g style="fill: #262626" transform="translate(607.013278 255.380875) scale(0.1 -0.1)">
       <defs>
        <path id="DejaVuSans-33" d="M 2597 2516 
Q 3050 2419 3304 2112 
Q 3559 1806 3559 1356 
Q 3559 666 3084 287 
Q 2609 -91 1734 -91 
Q 1441 -91 1130 -33 
Q 819 25 488 141 
L 488 750 
Q 750 597 1062 519 
Q 1375 441 1716 441 
Q 2309 441 2620 675 
Q 2931 909 2931 1356 
Q 2931 1769 2642 2001 
Q 2353 2234 1838 2234 
L 1294 2234 
L 1294 2753 
L 1863 2753 
Q 2328 2753 2575 2939 
Q 2822 3125 2822 3475 
Q 2822 3834 2567 4026 
Q 2313 4219 1838 4219 
Q 1578 4219 1281 4162 
Q 984 4106 628 3988 
L 628 4550 
Q 988 4650 1302 4700 
Q 1616 4750 1894 4750 
Q 2613 4750 3031 4423 
Q 3450 4097 3450 3541 
Q 3450 3153 3228 2886 
Q 3006 2619 2597 2516 
z
" transform="scale(0.015625)"/>
       </defs>
       <use xlink:href="#DejaVuSans-33"/>
       <use xlink:href="#DejaVuSans-30" x="63.623047"/>
       <use xlink:href="#DejaVuSans-30" x="127.246094"/>
      </g>
     </g>
    </g>
    <g id="xtick_5">
     <g id="line2d_5">
      <path d="M 806.514475 240.782437 
L 806.514475 19.022437 
" clip-path="url(#p5cfd217405)" style="fill: none; stroke: #cccccc; stroke-width: 0.8; stroke-linecap: round"/>
     </g>
     <g id="text_5">
      <!-- 400 -->
      <g style="fill: #262626" transform="translate(796.970725 255.380875) scale(0.1 -0.1)">
       <defs>
        <path id="DejaVuSans-34" d="M 2419 4116 
L 825 1625 
L 2419 1625 
L 2419 4116 
z
M 2253 4666 
L 3047 4666 
L 3047 1625 
L 3713 1625 
L 3713 1100 
L 3047 1100 
L 3047 0 
L 2419 0 
L 2419 1100 
L 313 1100 
L 313 1709 
L 2253 4666 
z
" transform="scale(0.015625)"/>
       </defs>
       <use xlink:href="#DejaVuSans-34"/>
       <use xlink:href="#DejaVuSans-30" x="63.623047"/>
       <use xlink:href="#DejaVuSans-30" x="127.246094"/>
      </g>
     </g>
    </g>
    <g id="text_6">
     <!-- Frames -->
     <g style="fill: #262626" transform="translate(469.445 271.338531) scale(0.13 -0.13)">
      <defs>
       <path id="DejaVuSans-46" d="M 628 4666 
L 3309 4666 
L 3309 4134 
L 1259 4134 
L 1259 2759 
L 3109 2759 
L 3109 2228 
L 1259 2228 
L 1259 0 
L 628 0 
L 628 4666 
z
" transform="scale(0.015625)"/>
       <path id="DejaVuSans-72" d="M 2631 2963 
Q 2534 3019 2420 3045 
Q 2306 3072 2169 3072 
Q 1681 3072 1420 2755 
Q 1159 2438 1159 1844 
L 1159 0 
L 581 0 
L 581 3500 
L 1159 3500 
L 1159 2956 
Q 1341 3275 1631 3429 
Q 1922 3584 2338 3584 
Q 2397 3584 2469 3576 
Q 2541 3569 2628 3553 
L 2631 2963 
z
" transform="scale(0.015625)"/>
       <path id="DejaVuSans-61" d="M 2194 1759 
Q 1497 1759 1228 1600 
Q 959 1441 959 1056 
Q 959 750 1161 570 
Q 1363 391 1709 391 
Q 2188 391 2477 730 
Q 2766 1069 2766 1631 
L 2766 1759 
L 2194 1759 
z
M 3341 1997 
L 3341 0 
L 2766 0 
L 2766 531 
Q 2569 213 2275 61 
Q 1981 -91 1556 -91 
Q 1019 -91 701 211 
Q 384 513 384 1019 
Q 384 1609 779 1909 
Q 1175 2209 1959 2209 
L 2766 2209 
L 2766 2266 
Q 2766 2663 2505 2880 
Q 2244 3097 1772 3097 
Q 1472 3097 1187 3025 
Q 903 2953 641 2809 
L 641 3341 
Q 956 3463 1253 3523 
Q 1550 3584 1831 3584 
Q 2591 3584 2966 3190 
Q 3341 2797 3341 1997 
z
" transform="scale(0.015625)"/>
       <path id="DejaVuSans-6d" d="M 3328 2828 
Q 3544 3216 3844 3400 
Q 4144 3584 4550 3584 
Q 5097 3584 5394 3201 
Q 5691 2819 5691 2113 
L 5691 0 
L 5113 0 
L 5113 2094 
Q 5113 2597 4934 2840 
Q 4756 3084 4391 3084 
Q 3944 3084 3684 2787 
Q 3425 2491 3425 1978 
L 3425 0 
L 2847 0 
L 2847 2094 
Q 2847 2600 2669 2842 
Q 2491 3084 2119 3084 
Q 1678 3084 1418 2786 
Q 1159 2488 1159 1978 
L 1159 0 
L 581 0 
L 581 3500 
L 1159 3500 
L 1159 2956 
Q 1356 3278 1631 3431 
Q 1906 3584 2284 3584 
Q 2666 3584 2933 3390 
Q 3200 3197 3328 2828 
z
" transform="scale(0.015625)"/>
       <path id="DejaVuSans-65" d="M 3597 1894 
L 3597 1613 
L 953 1613 
Q 991 1019 1311 708 
Q 1631 397 2203 397 
Q 2534 397 2845 478 
Q 3156 559 3463 722 
L 3463 178 
Q 3153 47 2828 -22 
Q 2503 -91 2169 -91 
Q 1331 -91 842 396 
Q 353 884 353 1716 
Q 353 2575 817 3079 
Q 1281 3584 2069 3584 
Q 2775 3584 3186 3129 
Q 3597 2675 3597 1894 
z
M 3022 2063 
Q 3016 2534 2758 2815 
Q 2500 3097 2075 3097 
Q 1594 3097 1305 2825 
Q 1016 2553 972 2059 
L 3022 2063 
z
" transform="scale(0.015625)"/>
       <path id="DejaVuSans-73" d="M 2834 3397 
L 2834 2853 
Q 2591 2978 2328 3040 
Q 2066 3103 1784 3103 
Q 1356 3103 1142 2972 
Q 928 2841 928 2578 
Q 928 2378 1081 2264 
Q 1234 2150 1697 2047 
L 1894 2003 
Q 2506 1872 2764 1633 
Q 3022 1394 3022 966 
Q 3022 478 2636 193 
Q 2250 -91 1575 -91 
Q 1294 -91 989 -36 
Q 684 19 347 128 
L 347 722 
Q 666 556 975 473 
Q 1284 391 1588 391 
Q 1994 391 2212 530 
Q 2431 669 2431 922 
Q 2431 1156 2273 1281 
Q 2116 1406 1581 1522 
L 1381 1569 
Q 847 1681 609 1914 
Q 372 2147 372 2553 
Q 372 3047 722 3315 
Q 1072 3584 1716 3584 
Q 2034 3584 2315 3537 
Q 2597 3491 2834 3397 
z
" transform="scale(0.015625)"/>
      </defs>
      <use xlink:href="#DejaVuSans-46"/>
      <use xlink:href="#DejaVuSans-72" x="50.269531"/>
      <use xlink:href="#DejaVuSans-61" x="91.382812"/>
      <use xlink:href="#DejaVuSans-6d" x="152.662109"/>
      <use xlink:href="#DejaVuSans-65" x="250.074219"/>
      <use xlink:href="#DejaVuSans-73" x="311.597656"/>
     </g>
    </g>
   </g>
   <g id="matplotlib.axis_2">
    <g id="ytick_1">
     <g id="line2d_6">
      <path d="M 46.684688 240.782437 
L 939.484687 240.782437 
" clip-path="url(#p5cfd217405)" style="fill: none; stroke: #cccccc; stroke-width: 0.8; stroke-linecap: round"/>
     </g>
     <g id="text_7">
      <!-- 0.0 -->
      <g style="fill: #262626" transform="translate(23.781563 244.581656) scale(0.1 -0.1)">
       <defs>
        <path id="DejaVuSans-2e" d="M 684 794 
L 1344 794 
L 1344 0 
L 684 0 
L 684 794 
z
" transform="scale(0.015625)"/>
       </defs>
       <use xlink:href="#DejaVuSans-30"/>
       <use xlink:href="#DejaVuSans-2e" x="63.623047"/>
       <use xlink:href="#DejaVuSans-30" x="95.410156"/>
      </g>
     </g>
    </g>
    <g id="ytick_2">
     <g id="line2d_7">
      <path d="M 46.684688 198.542437 
L 939.484687 198.542437 
" clip-path="url(#p5cfd217405)" style="fill: none; stroke: #cccccc; stroke-width: 0.8; stroke-linecap: round"/>
     </g>
     <g id="text_8">
      <!-- 0.2 -->
      <g style="fill: #262626" transform="translate(23.781563 202.341656) scale(0.1 -0.1)">
       <use xlink:href="#DejaVuSans-30"/>
       <use xlink:href="#DejaVuSans-2e" x="63.623047"/>
       <use xlink:href="#DejaVuSans-32" x="95.410156"/>
      </g>
     </g>
    </g>
    <g id="ytick_3">
     <g id="line2d_8">
      <path d="M 46.684688 156.302437 
L 939.484687 156.302437 
" clip-path="url(#p5cfd217405)" style="fill: none; stroke: #cccccc; stroke-width: 0.8; stroke-linecap: round"/>
     </g>
     <g id="text_9">
      <!-- 0.4 -->
      <g style="fill: #262626" transform="translate(23.781563 160.101656) scale(0.1 -0.1)">
       <use xlink:href="#DejaVuSans-30"/>
       <use xlink:href="#DejaVuSans-2e" x="63.623047"/>
       <use xlink:href="#DejaVuSans-34" x="95.410156"/>
      </g>
     </g>
    </g>
    <g id="ytick_4">
     <g id="line2d_9">
      <path d="M 46.684688 114.062437 
L 939.484687 114.062437 
" clip-path="url(#p5cfd217405)" style="fill: none; stroke: #cccccc; stroke-width: 0.8; stroke-linecap: round"/>
     </g>
     <g id="text_10">
      <!-- 0.6 -->
      <g style="fill: #262626" transform="translate(23.781563 117.861656) scale(0.1 -0.1)">
       <defs>
        <path id="DejaVuSans-36" d="M 2113 2584 
Q 1688 2584 1439 2293 
Q 1191 2003 1191 1497 
Q 1191 994 1439 701 
Q 1688 409 2113 409 
Q 2538 409 2786 701 
Q 3034 994 3034 1497 
Q 3034 2003 2786 2293 
Q 2538 2584 2113 2584 
z
M 3366 4563 
L 3366 3988 
Q 3128 4100 2886 4159 
Q 2644 4219 2406 4219 
Q 1781 4219 1451 3797 
Q 1122 3375 1075 2522 
Q 1259 2794 1537 2939 
Q 1816 3084 2150 3084 
Q 2853 3084 3261 2657 
Q 3669 2231 3669 1497 
Q 3669 778 3244 343 
Q 2819 -91 2113 -91 
Q 1303 -91 875 529 
Q 447 1150 447 2328 
Q 447 3434 972 4092 
Q 1497 4750 2381 4750 
Q 2619 4750 2861 4703 
Q 3103 4656 3366 4563 
z
" transform="scale(0.015625)"/>
       </defs>
       <use xlink:href="#DejaVuSans-30"/>
       <use xlink:href="#DejaVuSans-2e" x="63.623047"/>
       <use xlink:href="#DejaVuSans-36" x="95.410156"/>
      </g>
     </g>
    </g>
    <g id="ytick_5">
     <g id="line2d_10">
      <path d="M 46.684688 71.822437 
L 939.484687 71.822437 
" clip-path="url(#p5cfd217405)" style="fill: none; stroke: #cccccc; stroke-width: 0.8; stroke-linecap: round"/>
     </g>
     <g id="text_11">
      <!-- 0.8 -->
      <g style="fill: #262626" transform="translate(23.781563 75.621656) scale(0.1 -0.1)">
       <defs>
        <path id="DejaVuSans-38" d="M 2034 2216 
Q 1584 2216 1326 1975 
Q 1069 1734 1069 1313 
Q 1069 891 1326 650 
Q 1584 409 2034 409 
Q 2484 409 2743 651 
Q 3003 894 3003 1313 
Q 3003 1734 2745 1975 
Q 2488 2216 2034 2216 
z
M 1403 2484 
Q 997 2584 770 2862 
Q 544 3141 544 3541 
Q 544 4100 942 4425 
Q 1341 4750 2034 4750 
Q 2731 4750 3128 4425 
Q 3525 4100 3525 3541 
Q 3525 3141 3298 2862 
Q 3072 2584 2669 2484 
Q 3125 2378 3379 2068 
Q 3634 1759 3634 1313 
Q 3634 634 3220 271 
Q 2806 -91 2034 -91 
Q 1263 -91 848 271 
Q 434 634 434 1313 
Q 434 1759 690 2068 
Q 947 2378 1403 2484 
z
M 1172 3481 
Q 1172 3119 1398 2916 
Q 1625 2713 2034 2713 
Q 2441 2713 2670 2916 
Q 2900 3119 2900 3481 
Q 2900 3844 2670 4047 
Q 2441 4250 2034 4250 
Q 1625 4250 1398 4047 
Q 1172 3844 1172 3481 
z
" transform="scale(0.015625)"/>
       </defs>
       <use xlink:href="#DejaVuSans-30"/>
       <use xlink:href="#DejaVuSans-2e" x="63.623047"/>
       <use xlink:href="#DejaVuSans-38" x="95.410156"/>
      </g>
     </g>
    </g>
    <g id="ytick_6">
     <g id="line2d_11">
      <path d="M 46.684688 29.582437 
L 939.484687 29.582437 
" clip-path="url(#p5cfd217405)" style="fill: none; stroke: #cccccc; stroke-width: 0.8; stroke-linecap: round"/>
     </g>
     <g id="text_12">
      <!-- 1.0 -->
      <g style="fill: #262626" transform="translate(23.781563 33.381656) scale(0.1 -0.1)">
       <use xlink:href="#DejaVuSans-31"/>
       <use xlink:href="#DejaVuSans-2e" x="63.623047"/>
       <use xlink:href="#DejaVuSans-30" x="95.410156"/>
      </g>
     </g>
    </g>
    <g id="text_13">
     <!-- Score -->
     <g style="fill: #262626" transform="translate(17.077969 148.105484) rotate(-90) scale(0.13 -0.13)">
      <defs>
       <path id="DejaVuSans-53" d="M 3425 4513 
L 3425 3897 
Q 3066 4069 2747 4153 
Q 2428 4238 2131 4238 
Q 1616 4238 1336 4038 
Q 1056 3838 1056 3469 
Q 1056 3159 1242 3001 
Q 1428 2844 1947 2747 
L 2328 2669 
Q 3034 2534 3370 2195 
Q 3706 1856 3706 1288 
Q 3706 609 3251 259 
Q 2797 -91 1919 -91 
Q 1588 -91 1214 -16 
Q 841 59 441 206 
L 441 856 
Q 825 641 1194 531 
Q 1563 422 1919 422 
Q 2459 422 2753 634 
Q 3047 847 3047 1241 
Q 3047 1584 2836 1778 
Q 2625 1972 2144 2069 
L 1759 2144 
Q 1053 2284 737 2584 
Q 422 2884 422 3419 
Q 422 4038 858 4394 
Q 1294 4750 2059 4750 
Q 2388 4750 2728 4690 
Q 3069 4631 3425 4513 
z
" transform="scale(0.015625)"/>
       <path id="DejaVuSans-63" d="M 3122 3366 
L 3122 2828 
Q 2878 2963 2633 3030 
Q 2388 3097 2138 3097 
Q 1578 3097 1268 2742 
Q 959 2388 959 1747 
Q 959 1106 1268 751 
Q 1578 397 2138 397 
Q 2388 397 2633 464 
Q 2878 531 3122 666 
L 3122 134 
Q 2881 22 2623 -34 
Q 2366 -91 2075 -91 
Q 1284 -91 818 406 
Q 353 903 353 1747 
Q 353 2603 823 3093 
Q 1294 3584 2113 3584 
Q 2378 3584 2631 3529 
Q 2884 3475 3122 3366 
z
" transform="scale(0.015625)"/>
       <path id="DejaVuSans-6f" d="M 1959 3097 
Q 1497 3097 1228 2736 
Q 959 2375 959 1747 
Q 959 1119 1226 758 
Q 1494 397 1959 397 
Q 2419 397 2687 759 
Q 2956 1122 2956 1747 
Q 2956 2369 2687 2733 
Q 2419 3097 1959 3097 
z
M 1959 3584 
Q 2709 3584 3137 3096 
Q 3566 2609 3566 1747 
Q 3566 888 3137 398 
Q 2709 -91 1959 -91 
Q 1206 -91 779 398 
Q 353 888 353 1747 
Q 353 2609 779 3096 
Q 1206 3584 1959 3584 
z
" transform="scale(0.015625)"/>
      </defs>
      <use xlink:href="#DejaVuSans-53"/>
      <use xlink:href="#DejaVuSans-63" x="63.476562"/>
      <use xlink:href="#DejaVuSans-6f" x="118.457031"/>
      <use xlink:href="#DejaVuSans-72" x="179.638672"/>
      <use xlink:href="#DejaVuSans-65" x="218.501953"/>
     </g>
    </g>
   </g>
   <g id="PolyCollection_1"/>
   <g id="PolyCollection_2"/>
   <g id="PolyCollection_3"/>
   <g id="PolyCollection_4"/>
   <g id="PolyCollection_5"/>
   <g id="PolyCollection_6"/>
   <g id="patch_3">
    <path d="M 46.684688 240.782437 
L 46.684688 19.022437 
L 115.069368 19.022437 
L 115.069368 240.782437 
z
" clip-path="url(#p5cfd217405)" style="fill: #808080; opacity: 0.3; stroke: #808080; stroke-linejoin: miter"/>
   </g>
   <g id="patch_4">
    <path d="M 246.140007 240.782437 
L 246.140007 19.022437 
L 312.625113 19.022437 
L 312.625113 240.782437 
z
" clip-path="url(#p5cfd217405)" style="fill: #808080; opacity: 0.3; stroke: #808080; stroke-linejoin: miter"/>
   </g>
   <g id="patch_5">
    <path d="M 375.31107 240.782437 
L 375.31107 19.022437 
L 464.59107 19.022437 
L 464.59107 240.782437 
z
" clip-path="url(#p5cfd217405)" style="fill: #808080; opacity: 0.3; stroke: #808080; stroke-linejoin: miter"/>
   </g>
   <g id="patch_6">
    <path d="M 525.377453 240.782437 
L 525.377453 19.022437 
L 584.264262 19.022437 
L 584.264262 240.782437 
z
" clip-path="url(#p5cfd217405)" style="fill: #808080; opacity: 0.3; stroke: #808080; stroke-linejoin: miter"/>
   </g>
   <g id="patch_7">
    <path d="M 683.042134 240.782437 
L 683.042134 19.022437 
L 781.820007 19.022437 
L 781.820007 240.782437 
z
" clip-path="url(#p5cfd217405)" style="fill: #808080; opacity: 0.3; stroke: #808080; stroke-linejoin: miter"/>
   </g>
   <g id="patch_8">
    <path d="M 812.213198 240.782437 
L 812.213198 19.022437 
L 910.99107 19.022437 
L 910.99107 240.782437 
z
" clip-path="url(#p5cfd217405)" style="fill: #808080; opacity: 0.3; stroke: #808080; stroke-linejoin: miter"/>
   </g>
   <g id="line2d_12">
    <path d="M 46.684688 240.283797 
L 50.483836 240.51492 
L 59.981709 240.658012 
L 84.676177 240.709932 
L 99.872773 240.698691 
L 101.772347 239.29334 
L 103.671922 238.268136 
L 105.571496 236.583758 
L 107.47107 235.226057 
L 109.370645 233.68782 
L 111.270219 232.405543 
L 113.169794 230.799107 
L 115.069368 229.487167 
L 116.968943 227.808384 
L 118.868517 225.924866 
L 120.768092 223.469603 
L 124.567241 219.389753 
L 126.466815 218.835218 
L 135.964688 218.314538 
L 145.46256 217.927026 
L 156.860007 217.252 
L 160.659156 216.903865 
L 162.55873 217.997429 
L 164.458305 218.768378 
L 166.357879 220.269527 
L 168.257453 221.523938 
L 170.157028 222.954277 
L 172.056602 224.145215 
L 173.956177 225.635209 
L 175.855751 226.890221 
L 177.755326 228.507568 
L 179.6549 230.322243 
L 181.554475 232.700223 
L 185.353624 236.643188 
L 187.253198 236.963884 
L 192.951922 236.545828 
L 194.851496 236.24549 
L 198.650645 235.351972 
L 200.550219 235.040319 
L 204.349368 234.684741 
L 208.148517 234.174745 
L 210.048092 233.884361 
L 211.947666 233.364169 
L 215.746815 233.352996 
L 225.244688 233.643124 
L 227.144262 233.859564 
L 240.441283 234.466324 
L 246.140007 234.681257 
L 251.83873 235.430084 
L 255.637879 236.109568 
L 259.437028 237.114683 
L 261.336602 237.500616 
L 267.035326 238.330588 
L 270.834475 239.143735 
L 272.734049 239.776779 
L 278.432773 240.092184 
L 282.231922 240.393908 
L 286.03107 240.639801 
L 287.930645 240.622895 
L 291.729794 240.267944 
L 293.629368 239.719616 
L 295.528943 239.386185 
L 297.428517 238.75993 
L 301.227666 237.852702 
L 303.127241 237.75033 
L 305.026815 237.498509 
L 306.92639 236.205809 
L 308.825964 234.378752 
L 310.725539 233.380059 
L 312.625113 231.336937 
L 314.524688 229.961277 
L 316.424262 227.796187 
L 318.323836 226.747796 
L 320.223411 224.798236 
L 322.122985 223.646517 
L 324.02256 221.855104 
L 325.922134 220.902614 
L 327.821709 219.159514 
L 329.721283 218.252985 
L 331.620858 216.706346 
L 333.520432 216.059555 
L 335.420007 214.702289 
L 337.319581 213.824584 
L 339.219156 211.59918 
L 341.11873 210.622214 
L 343.018305 208.24712 
L 344.917879 205.476271 
L 348.717028 199.473095 
L 350.616602 195.389751 
L 352.516177 190.601563 
L 358.2149 174.069104 
L 360.114475 169.699818 
L 362.014049 164.6797 
L 365.813198 153.366357 
L 369.612347 144.638479 
L 371.511922 139.33546 
L 373.411496 134.974627 
L 375.31107 129.996189 
L 377.210645 125.698286 
L 379.110219 120.239434 
L 381.009794 115.643372 
L 382.909368 110.257281 
L 384.808943 105.503234 
L 386.708517 99.885363 
L 388.608092 95.046545 
L 390.507666 89.395063 
L 392.407241 84.390832 
L 394.306815 78.470158 
L 396.20639 73.254163 
L 398.105964 67.582943 
L 400.005539 63.284045 
L 401.905113 57.705073 
L 403.804688 53.547116 
L 405.704262 49.794434 
L 409.503411 42.875932 
L 411.402985 40.624907 
L 413.30256 39.184845 
L 417.101709 38.152777 
L 419.001283 37.909139 
L 420.900858 36.478217 
L 422.800432 35.740405 
L 424.700007 35.295603 
L 426.599581 35.31548 
L 428.499156 35.856144 
L 430.39873 37.375626 
L 432.298305 39.843677 
L 436.097453 47.031938 
L 437.997028 51.665186 
L 441.796177 63.662934 
L 451.294049 94.73148 
L 460.791922 125.995324 
L 468.390219 151.406252 
L 485.48639 207.152235 
L 487.385964 213.017583 
L 489.285539 218.084703 
L 491.185113 222.620999 
L 493.084687 226.352329 
L 494.984262 229.161743 
L 496.883836 231.745906 
L 498.783411 233.506005 
L 500.682985 234.099847 
L 510.180858 235.816262 
L 513.980007 236.415123 
L 521.578305 237.574352 
L 525.377453 237.926049 
L 536.7749 239.331132 
L 538.674475 239.617805 
L 567.168092 240.710885 
L 574.76639 240.696182 
L 591.86256 240.328163 
L 603.260007 239.852563 
L 610.858305 239.204579 
L 614.657453 238.703156 
L 620.356177 237.826803 
L 646.950219 234.109991 
L 650.749368 233.510224 
L 652.648943 233.278033 
L 654.548517 232.812216 
L 656.448092 232.118871 
L 658.347666 231.285891 
L 660.247241 230.073637 
L 662.146815 228.207238 
L 664.04639 225.814688 
L 665.945964 224.368348 
L 667.845539 222.537218 
L 669.745113 219.781233 
L 671.644688 215.761204 
L 673.544262 213.160081 
L 675.443836 212.429423 
L 677.343411 210.321884 
L 679.242985 207.924433 
L 681.14256 207.205078 
L 683.042134 207.293236 
L 684.941709 206.961853 
L 686.841283 205.95442 
L 690.640432 206.251103 
L 692.540007 206.437715 
L 694.439581 206.411531 
L 700.138305 207.237116 
L 702.037879 207.204776 
L 705.837028 207.616773 
L 707.736602 207.863114 
L 711.535751 207.850441 
L 713.435326 208.094466 
L 715.3349 208.508593 
L 717.234475 208.767494 
L 719.134049 209.602706 
L 721.033624 210.775867 
L 722.933198 212.689863 
L 724.832773 214.90794 
L 726.732347 216.051893 
L 728.631922 216.888514 
L 730.531496 219.541038 
L 732.43107 223.001361 
L 734.330645 224.678341 
L 736.230219 225.228788 
L 740.029368 229.458105 
L 741.928943 230.175755 
L 743.828517 230.210071 
L 745.728092 230.725735 
L 747.627666 231.916465 
L 749.527241 232.047171 
L 751.426815 231.97224 
L 753.32639 231.295587 
L 755.225964 231.088156 
L 759.025113 230.191186 
L 760.924688 229.902973 
L 764.723836 229.941281 
L 768.522985 229.816078 
L 772.322134 230.335658 
L 776.121283 230.349849 
L 778.020858 230.771174 
L 783.719581 230.668994 
L 785.619156 230.798937 
L 787.51873 231.065204 
L 789.418305 232.017648 
L 791.317879 232.102466 
L 793.217453 232.615685 
L 795.117028 233.554704 
L 798.916177 233.973943 
L 800.815751 234.46084 
L 804.6149 234.613432 
L 812.213198 234.459056 
L 814.112773 235.148227 
L 819.811496 236.437619 
L 823.610645 236.927139 
L 829.309368 237.159096 
L 846.405539 237.649318 
L 852.104262 238.029292 
L 859.70256 238.55818 
L 871.100007 238.944963 
L 884.397028 239.355872 
L 897.694049 239.521941 
L 907.191922 239.869477 
L 907.191922 239.869477 
" clip-path="url(#p5cfd217405)" style="fill: none; stroke: #1f77b4; stroke-width: 1.5; stroke-linecap: round"/>
   </g>
   <g id="line2d_13">
    <path d="M 46.684688 240.736278 
L 73.27873 240.770056 
L 84.676177 240.64132 
L 88.475326 240.330089 
L 90.3749 239.969471 
L 92.274475 238.980705 
L 94.174049 236.550556 
L 96.073624 230.758951 
L 99.872773 217.706252 
L 101.772347 216.856204 
L 103.671922 215.136537 
L 105.571496 213.023068 
L 109.370645 205.622298 
L 115.069368 193.335367 
L 118.868517 186.003336 
L 120.768092 183.200261 
L 124.567241 176.562407 
L 126.466815 176.135575 
L 137.864262 176.025483 
L 145.46256 176.060712 
L 149.261709 176.265715 
L 151.161283 176.528884 
L 153.060858 177.290426 
L 154.960432 179.282556 
L 156.860007 184.251269 
L 158.759581 190.203842 
L 160.659156 196.534297 
L 162.55873 197.870425 
L 164.458305 200.010221 
L 166.357879 202.550436 
L 170.157028 209.015576 
L 172.056602 212.707836 
L 173.956177 216.042935 
L 175.855751 219.66681 
L 177.755326 222.85087 
L 179.6549 225.808381 
L 181.554475 227.944292 
L 185.353624 233.506241 
L 187.253198 233.248872 
L 189.152773 232.453988 
L 192.951922 230.380364 
L 194.851496 228.946044 
L 198.650645 226.588684 
L 202.449794 224.889049 
L 206.248943 223.241974 
L 208.148517 222.530022 
L 211.947666 221.702635 
L 217.64639 221.738689 
L 221.445539 221.885071 
L 225.244688 222.329281 
L 229.043836 223.130116 
L 236.642134 225.276846 
L 248.039581 228.894775 
L 249.939156 229.723469 
L 253.738305 231.855752 
L 255.637879 233.298232 
L 259.437028 235.674477 
L 263.236177 237.393912 
L 267.035326 239.065801 
L 268.9349 239.791068 
L 272.734049 240.653606 
L 280.332347 240.749075 
L 287.930645 240.641407 
L 291.729794 240.212501 
L 293.629368 239.6779 
L 297.428517 238.915359 
L 305.026815 238.309989 
L 306.92639 237.836877 
L 308.825964 237.11604 
L 312.625113 235.045273 
L 314.524688 234.356799 
L 318.323836 232.075259 
L 320.223411 230.816637 
L 322.122985 229.984322 
L 325.922134 227.792009 
L 327.821709 226.901755 
L 331.620858 225.780812 
L 333.520432 225.180312 
L 335.420007 224.701446 
L 341.11873 224.077859 
L 343.018305 223.851527 
L 348.717028 223.739711 
L 352.516177 224.073324 
L 354.415751 224.576697 
L 358.2149 225.260095 
L 365.813198 225.676774 
L 367.712773 226.111877 
L 369.612347 226.809151 
L 373.411496 228.847597 
L 375.31107 229.523998 
L 379.110219 231.789434 
L 381.009794 233.04252 
L 382.909368 233.867933 
L 386.708517 236.04307 
L 388.608092 236.928746 
L 392.407241 238.026235 
L 394.306815 238.618239 
L 396.20639 239.091907 
L 401.905113 239.70208 
L 403.804688 239.934396 
L 424.700007 240.433074 
L 453.193624 240.514862 
L 517.779156 240.572059 
L 567.168092 240.598715 
L 570.967241 240.424434 
L 574.76639 239.926712 
L 576.665964 239.478878 
L 580.465113 238.357218 
L 584.264262 237.599854 
L 588.063411 236.957607 
L 591.86256 235.786834 
L 593.762134 235.423182 
L 597.561283 235.158733 
L 601.360432 235.020398 
L 622.255751 235.011207 
L 627.954475 235.108965 
L 631.753624 235.271113 
L 637.452347 236.193858 
L 641.251496 237.279971 
L 645.050645 237.991719 
L 648.849794 238.617094 
L 652.648943 239.765385 
L 654.548517 240.115286 
L 658.347666 240.346305 
L 662.146815 240.36638 
L 664.04639 240.299254 
L 665.945964 239.88328 
L 667.845539 238.884567 
L 671.644688 237.817989 
L 673.544262 236.521635 
L 675.443836 232.120632 
L 677.343411 229.861974 
L 679.242985 226.875492 
L 681.14256 221.894531 
L 683.042134 215.753859 
L 684.941709 210.054665 
L 686.841283 204.926371 
L 702.037879 154.07154 
L 707.736602 135.778849 
L 709.636177 130.255449 
L 711.535751 126.835166 
L 713.435326 120.97673 
L 715.3349 115.854179 
L 717.234475 112.612011 
L 722.933198 93.992585 
L 724.832773 88.528219 
L 726.732347 85.200273 
L 728.631922 83.334204 
L 730.531496 78.803728 
L 732.43107 75.550268 
L 734.330645 75.608087 
L 736.230219 79.143227 
L 738.129794 80.524866 
L 740.029368 82.540876 
L 741.928943 87.36547 
L 743.828517 93.455547 
L 745.728092 99.128014 
L 747.627666 104.224091 
L 762.824262 155.023382 
L 768.522985 173.338889 
L 770.42256 178.859142 
L 772.322134 182.277807 
L 774.221709 188.140052 
L 776.121283 193.27031 
L 778.020858 196.514873 
L 783.719581 215.248937 
L 785.619156 220.782452 
L 787.51873 224.522946 
L 789.418305 227.385799 
L 791.317879 232.449172 
L 793.217453 236.236371 
L 795.117028 237.477349 
L 800.815751 240.203334 
L 804.6149 240.416839 
L 821.71107 240.583625 
L 857.802985 240.710214 
L 907.191922 240.668895 
L 907.191922 240.668895 
" clip-path="url(#p5cfd217405)" style="fill: none; stroke: #ff7f0e; stroke-width: 1.5; stroke-linecap: round"/>
   </g>
   <g id="line2d_14">
    <path d="M 46.684688 215.661338 
L 48.584262 221.727327 
L 50.483836 223.856724 
L 52.383411 225.562792 
L 56.18256 227.997151 
L 58.082134 229.1092 
L 63.780858 231.354287 
L 67.580007 232.390256 
L 71.379156 233.127516 
L 75.178305 233.743892 
L 80.877028 234.544105 
L 88.475326 235.272894 
L 97.973198 236.024005 
L 99.872773 236.186679 
L 101.772347 235.768604 
L 103.671922 235.516908 
L 105.571496 235.394787 
L 107.47107 235.94721 
L 115.069368 236.565989 
L 118.868517 236.63526 
L 122.667666 236.588515 
L 124.567241 236.523126 
L 126.466815 235.940094 
L 128.36639 234.616786 
L 132.165539 231.717974 
L 134.065113 229.953489 
L 135.964688 228.366437 
L 139.763836 224.218367 
L 141.663411 222.27589 
L 145.46256 219.320853 
L 147.362134 218.012596 
L 149.261709 216.979398 
L 153.060858 215.410754 
L 156.860007 214.283139 
L 160.659156 213.407521 
L 162.55873 213.566385 
L 168.257453 213.364903 
L 172.056602 213.39063 
L 177.755326 213.274832 
L 185.353624 212.799282 
L 187.253198 212.488195 
L 189.152773 213.106086 
L 192.951922 215.000843 
L 194.851496 216.379318 
L 196.75107 217.55263 
L 202.449794 222.849057 
L 208.148517 227.023278 
L 210.048092 228.045336 
L 213.847241 229.596041 
L 215.746815 230.182241 
L 217.64639 230.571442 
L 219.545964 230.679354 
L 221.445539 230.52886 
L 223.345113 229.495353 
L 227.144262 227.146775 
L 229.043836 226.1694 
L 230.943411 225.536163 
L 234.74256 225.177064 
L 238.541709 225.247939 
L 244.240432 225.921794 
L 246.140007 226.177942 
L 248.039581 227.159104 
L 249.939156 227.948335 
L 253.738305 229.133527 
L 259.437028 230.522775 
L 263.236177 231.013964 
L 267.035326 231.153256 
L 272.734049 231.091837 
L 278.432773 230.600457 
L 282.231922 229.811438 
L 284.131496 230.273472 
L 286.03107 231.103419 
L 287.930645 231.428034 
L 289.830219 231.122204 
L 291.729794 230.618562 
L 293.629368 229.71279 
L 297.428517 228.194888 
L 299.328092 227.546106 
L 305.026815 226.486275 
L 312.625113 223.2188 
L 314.524688 222.060989 
L 316.424262 221.194705 
L 318.323836 219.877332 
L 320.223411 218.926112 
L 322.122985 217.6277 
L 324.02256 216.678127 
L 325.922134 215.251681 
L 327.821709 214.066825 
L 329.721283 212.604356 
L 331.620858 211.409484 
L 333.520432 209.876041 
L 337.319581 207.660376 
L 341.11873 206.21442 
L 343.018305 206.227308 
L 344.917879 205.259261 
L 348.717028 205.299441 
L 350.616602 205.929303 
L 352.516177 206.388645 
L 354.415751 207.407225 
L 358.2149 209.023459 
L 360.114475 209.191028 
L 363.913624 209.270864 
L 365.813198 209.489268 
L 371.511922 211.479447 
L 373.411496 212.109093 
L 375.31107 213.131241 
L 377.210645 213.920248 
L 379.110219 215.200958 
L 381.009794 216.132579 
L 382.909368 217.413689 
L 384.808943 218.3516 
L 386.708517 219.80599 
L 388.608092 221.027009 
L 390.507666 222.536279 
L 392.407241 223.782982 
L 394.306815 225.443851 
L 396.20639 226.706191 
L 398.105964 228.123656 
L 400.005539 229.071417 
L 401.905113 230.553161 
L 403.804688 231.518933 
L 405.704262 233.418248 
L 407.603836 234.233185 
L 409.503411 235.357782 
L 413.30256 237.025388 
L 417.101709 237.450415 
L 419.001283 237.537581 
L 420.900858 238.010156 
L 424.700007 238.438802 
L 426.599581 238.440324 
L 430.39873 238.108622 
L 434.197879 237.463978 
L 437.997028 236.352035 
L 451.294049 233.863247 
L 458.892347 232.571869 
L 479.787666 230.891607 
L 485.48639 230.933452 
L 487.385964 230.987254 
L 494.984262 231.70492 
L 496.883836 231.826987 
L 498.783411 231.225309 
L 500.682985 229.575982 
L 502.58256 224.770967 
L 504.482134 219.398845 
L 508.281283 207.425198 
L 521.578305 163.751461 
L 531.076177 131.998982 
L 546.272773 81.567005 
L 548.172347 76.085493 
L 550.071922 71.167669 
L 551.971496 67.060734 
L 553.87107 65.183876 
L 555.770645 64.517416 
L 557.670219 64.738067 
L 559.569794 65.556345 
L 561.469368 67.241341 
L 563.368943 72.113657 
L 565.268517 77.370955 
L 569.067666 89.364096 
L 576.665964 114.536012 
L 593.762134 172.041751 
L 607.059156 216.56997 
L 608.95873 222.069845 
L 610.858305 227.007038 
L 612.757879 231.190909 
L 614.657453 233.11673 
L 616.557028 233.836219 
L 622.255751 234.375706 
L 624.155326 234.559445 
L 626.0549 234.913751 
L 627.954475 235.119122 
L 631.753624 235.212806 
L 639.351922 234.998305 
L 648.849794 234.059368 
L 652.648943 233.479819 
L 656.448092 232.16299 
L 660.247241 230.146641 
L 662.146815 228.936084 
L 664.04639 227.407676 
L 669.745113 223.620764 
L 673.544262 221.987853 
L 675.443836 221.913373 
L 677.343411 221.364757 
L 679.242985 221.214486 
L 681.14256 221.208063 
L 684.941709 221.492889 
L 686.841283 221.595367 
L 694.439581 222.586087 
L 709.636177 224.837538 
L 711.535751 224.904478 
L 713.435326 225.337338 
L 715.3349 226.015786 
L 717.234475 226.300198 
L 721.033624 228.538543 
L 722.933198 229.849463 
L 724.832773 231.40635 
L 726.732347 232.71522 
L 728.631922 233.683038 
L 730.531496 235.042152 
L 732.43107 235.520753 
L 734.330645 235.599927 
L 736.230219 235.464446 
L 738.129794 235.790869 
L 740.029368 235.245652 
L 741.928943 234.957648 
L 745.728092 234.816037 
L 749.527241 234.807422 
L 751.426815 234.53767 
L 753.32639 233.07573 
L 759.025113 229.896496 
L 760.924688 229.333196 
L 762.824262 228.937577 
L 766.623411 228.522043 
L 768.522985 228.361971 
L 770.42256 228.317487 
L 772.322134 228.518228 
L 776.121283 228.388161 
L 778.020858 228.786143 
L 787.51873 228.127846 
L 789.418305 228.266712 
L 791.317879 228.170753 
L 793.217453 228.44484 
L 795.117028 229.148708 
L 798.916177 229.626979 
L 800.815751 230.399332 
L 802.715326 230.676961 
L 808.414049 230.557072 
L 810.313624 230.45079 
L 812.213198 230.583996 
L 814.112773 231.933501 
L 817.911922 233.997581 
L 819.811496 234.768391 
L 821.71107 235.251291 
L 823.610645 235.59766 
L 827.409794 235.903024 
L 835.008092 236.218421 
L 844.505964 236.575285 
L 850.204687 236.976423 
L 865.401283 237.767134 
L 874.899156 238.2046 
L 895.794475 238.863785 
L 899.593624 238.867732 
L 907.191922 239.074759 
L 907.191922 239.074759 
" clip-path="url(#p5cfd217405)" style="fill: none; stroke: #2ca02c; stroke-width: 1.5; stroke-linecap: round"/>
   </g>
   <g id="line2d_15">
    <path d="M 46.684688 240.629426 
L 54.282985 240.730788 
L 88.475326 240.767861 
L 99.872773 240.768615 
L 105.571496 240.294772 
L 107.47107 240.018543 
L 111.270219 239.036987 
L 118.868517 236.585048 
L 122.667666 235.157378 
L 124.567241 234.451727 
L 132.165539 217.211661 
L 135.964688 209.964607 
L 137.864262 206.959005 
L 139.763836 203.569381 
L 141.663411 199.924859 
L 145.46256 191.664278 
L 147.362134 187.178517 
L 149.261709 182.250692 
L 154.960432 166.379997 
L 162.55873 143.953173 
L 170.157028 123.507257 
L 173.956177 113.671547 
L 177.755326 104.564711 
L 179.6549 100.379903 
L 181.554475 96.75337 
L 185.353624 88.202064 
L 187.253198 90.087431 
L 189.152773 91.633752 
L 192.951922 92.882254 
L 196.75107 93.2337 
L 198.650645 92.467841 
L 202.449794 90.177967 
L 204.349368 89.321345 
L 206.248943 88.254961 
L 208.148517 87.490725 
L 210.048092 86.902918 
L 211.947666 86.760051 
L 213.847241 85.655624 
L 215.746815 84.802652 
L 217.64639 84.225872 
L 219.545964 84.401759 
L 221.445539 84.75464 
L 223.345113 87.068431 
L 225.244688 91.391272 
L 229.043836 102.069305 
L 236.642134 123.769023 
L 240.441283 133.697699 
L 242.340858 138.081091 
L 246.140007 148.009075 
L 248.039581 150.490325 
L 249.939156 153.322574 
L 259.437028 171.237012 
L 261.336602 175.735274 
L 265.135751 185.561694 
L 268.9349 195.995405 
L 272.734049 206.893803 
L 278.432773 225.665744 
L 282.231922 236.452731 
L 284.131496 239.681155 
L 286.03107 240.576614 
L 287.930645 240.217094 
L 289.830219 239.686749 
L 293.629368 237.517697 
L 295.528943 234.305558 
L 297.428517 230.403377 
L 301.227666 220.325667 
L 305.026815 208.969086 
L 306.92639 205.475758 
L 310.725539 199.966857 
L 312.625113 197.872974 
L 314.524688 195.479941 
L 320.223411 190.871719 
L 322.122985 189.062405 
L 327.821709 184.224594 
L 329.721283 181.988335 
L 333.520432 177.723558 
L 335.420007 175.101367 
L 337.319581 172.11805 
L 339.219156 169.699931 
L 341.11873 166.771115 
L 343.018305 164.352122 
L 344.917879 163.127701 
L 346.817453 161.116789 
L 348.717028 159.843462 
L 350.616602 159.428444 
L 352.516177 160.110892 
L 354.415751 161.095344 
L 356.315326 164.093932 
L 360.114475 171.754645 
L 362.014049 176.422178 
L 365.813198 187.024257 
L 367.712773 189.948148 
L 371.511922 195.198956 
L 373.411496 197.249299 
L 375.31107 199.580932 
L 381.009794 204.131382 
L 382.909368 205.927604 
L 388.608092 210.740987 
L 390.507666 212.963959 
L 394.306815 217.205854 
L 396.20639 219.821576 
L 398.105964 222.789051 
L 400.005539 225.180317 
L 401.905113 228.10066 
L 403.804688 230.511538 
L 405.704262 231.761749 
L 407.603836 233.795023 
L 409.503411 235.422282 
L 411.402985 236.337235 
L 413.30256 236.618897 
L 419.001283 236.985049 
L 420.900858 237.746509 
L 422.800432 238.102771 
L 424.700007 238.260759 
L 426.599581 238.199124 
L 428.499156 237.73761 
L 430.39873 236.398535 
L 432.298305 234.272686 
L 436.097453 228.003094 
L 437.997028 223.940263 
L 441.796177 212.756623 
L 449.394475 189.503786 
L 455.093198 171.668924 
L 458.892347 159.905731 
L 472.189368 116.838877 
L 487.385964 68.346209 
L 489.285539 63.068203 
L 491.185113 58.420604 
L 493.084687 54.448503 
L 494.984262 51.536859 
L 496.883836 48.966312 
L 498.783411 48.364758 
L 500.682985 50.142632 
L 502.58256 54.810675 
L 504.482134 59.959472 
L 508.281283 71.234023 
L 521.578305 112.975025 
L 527.277028 131.559077 
L 534.875326 156.164378 
L 544.373198 187.139027 
L 551.971496 212.269678 
L 555.770645 224.568165 
L 557.670219 230.25334 
L 559.569794 234.920514 
L 561.469368 238.610483 
L 563.368943 239.591915 
L 565.268517 239.951247 
L 567.168092 239.869262 
L 569.067666 239.413046 
L 570.967241 238.303661 
L 572.866815 234.882466 
L 574.76639 230.996383 
L 578.565539 223.943882 
L 580.465113 220.014149 
L 582.364687 215.635121 
L 584.264262 210.713273 
L 588.063411 200.103792 
L 591.86256 190.455911 
L 593.762134 184.806258 
L 599.460858 166.452154 
L 614.657453 116.454097 
L 627.954475 74.544358 
L 629.854049 68.972575 
L 631.753624 64.120941 
L 633.653198 61.558086 
L 635.552773 59.542239 
L 639.351922 54.66923 
L 641.251496 52.741704 
L 643.15107 51.285479 
L 645.050645 50.32446 
L 648.849794 49.055413 
L 650.749368 47.982093 
L 652.648943 47.13111 
L 654.548517 47.567591 
L 656.448092 48.646816 
L 658.347666 50.325341 
L 660.247241 52.555772 
L 662.146815 55.813021 
L 664.04639 60.118113 
L 665.945964 63.891994 
L 669.745113 74.095301 
L 671.644688 79.739645 
L 673.544262 84.904909 
L 675.443836 90.776878 
L 679.242985 102.077248 
L 688.740858 132.373855 
L 694.439581 150.507358 
L 711.535751 203.314319 
L 713.435326 209.063059 
L 715.3349 214.23321 
L 719.134049 223.102177 
L 721.033624 226.790674 
L 722.933198 229.644271 
L 724.832773 231.138824 
L 726.732347 231.731304 
L 728.631922 231.181295 
L 730.531496 231.714891 
L 732.43107 231.648251 
L 734.330645 230.32699 
L 736.230219 226.206217 
L 738.129794 222.808488 
L 740.029368 220.27792 
L 741.928943 215.213891 
L 747.627666 196.496516 
L 749.527241 189.983616 
L 751.426815 183.867703 
L 753.32639 179.727402 
L 759.025113 165.373244 
L 762.824262 154.001132 
L 768.522985 135.430903 
L 776.121283 110.353533 
L 779.920432 98.220673 
L 783.719581 86.000939 
L 785.619156 80.37189 
L 789.418305 71.714338 
L 793.217453 60.665788 
L 795.117028 56.846411 
L 797.016602 55.057674 
L 798.916177 52.687209 
L 800.815751 49.107605 
L 802.715326 48.067191 
L 806.514475 47.90135 
L 808.414049 47.943521 
L 810.313624 48.121661 
L 812.213198 47.896768 
L 814.112773 45.660823 
L 817.911922 42.266208 
L 819.811496 40.905882 
L 821.71107 40.04435 
L 823.610645 39.418664 
L 825.510219 39.061251 
L 831.208943 38.471833 
L 844.505964 37.523062 
L 850.204687 36.679746 
L 855.903411 35.937226 
L 857.802985 35.604663 
L 867.300858 34.805205 
L 880.597879 33.64063 
L 907.191922 32.597056 
L 907.191922 32.597056 
" clip-path="url(#p5cfd217405)" style="fill: none; stroke: #d62728; stroke-width: 1.5; stroke-linecap: round"/>
   </g>
   <g id="line2d_16">
    <path d="M 46.684688 61.889705 
L 48.584262 54.425039 
L 52.383411 51.557466 
L 54.282985 50.656356 
L 56.18256 49.34014 
L 58.082134 48.439383 
L 59.981709 47.955166 
L 61.881283 47.640038 
L 63.780858 47.107016 
L 67.580007 48.050738 
L 69.479581 50.557247 
L 71.379156 53.78266 
L 73.27873 59.431913 
L 77.077879 69.224307 
L 78.977453 71.518888 
L 80.877028 74.365149 
L 82.776602 78.106375 
L 84.676177 81.451782 
L 86.575751 83.850446 
L 92.274475 87.482455 
L 94.174049 89.228983 
L 96.073624 93.076508 
L 99.872773 102.503507 
L 103.671922 107.268104 
L 105.571496 110.492686 
L 107.47107 115.325814 
L 111.270219 126.560712 
L 118.868517 150.50292 
L 124.567241 168.547485 
L 128.36639 179.279277 
L 130.265964 183.688229 
L 132.165539 187.694734 
L 135.964688 192.012388 
L 137.864262 193.712188 
L 139.763836 196.820088 
L 141.663411 199.669177 
L 145.46256 203.887417 
L 147.362134 206.657051 
L 153.060858 217.405319 
L 154.960432 220.51786 
L 156.860007 221.788685 
L 158.759581 222.186849 
L 160.659156 222.134204 
L 164.458305 225.715151 
L 166.357879 226.410303 
L 168.257453 226.799123 
L 170.157028 227.03006 
L 172.056602 227.033812 
L 173.956177 226.911595 
L 175.855751 226.553255 
L 177.755326 226.017561 
L 179.6549 225.322411 
L 181.554475 224.292342 
L 185.353624 223.05131 
L 187.253198 221.276409 
L 189.152773 219.968048 
L 192.951922 219.094147 
L 194.851496 219.16226 
L 196.75107 219.437847 
L 200.550219 220.341083 
L 202.449794 220.599077 
L 208.148517 222.00351 
L 215.746815 222.987932 
L 217.64639 223.042225 
L 219.545964 222.638655 
L 221.445539 222.380878 
L 223.345113 221.076467 
L 225.244688 217.797959 
L 227.144262 213.683367 
L 229.043836 210.102876 
L 230.943411 207.517506 
L 232.842985 205.238031 
L 234.74256 203.667578 
L 236.642134 203.361227 
L 240.441283 203.712034 
L 242.340858 204.463564 
L 246.140007 205.73055 
L 248.039581 207.652332 
L 249.939156 209.122329 
L 253.738305 210.621837 
L 255.637879 211.285713 
L 259.437028 212.072297 
L 263.236177 212.156734 
L 267.035326 211.454793 
L 268.9349 210.851766 
L 270.834475 210.09791 
L 272.734049 209.148095 
L 274.633624 208.063451 
L 280.332347 203.348925 
L 282.231922 201.045327 
L 284.131496 197.661994 
L 286.03107 195.906757 
L 287.930645 195.697071 
L 289.830219 195.664825 
L 291.729794 194.84645 
L 293.629368 194.474844 
L 295.528943 194.767674 
L 299.328092 195.096609 
L 301.227666 195.468816 
L 305.026815 195.512577 
L 316.424262 194.56076 
L 318.323836 194.079646 
L 322.122985 194.087329 
L 324.02256 194.170259 
L 325.922134 193.974706 
L 327.821709 194.096924 
L 331.620858 194.952832 
L 333.520432 195.038255 
L 335.420007 195.776085 
L 339.219156 198.716687 
L 341.11873 200.219235 
L 343.018305 202.665558 
L 344.917879 207.296254 
L 346.817453 212.423516 
L 348.717028 216.660569 
L 350.616602 220.484543 
L 352.516177 223.978792 
L 354.415751 226.841332 
L 356.315326 228.289606 
L 358.2149 228.968746 
L 363.913624 229.560657 
L 365.813198 229.682852 
L 369.612347 230.282696 
L 371.511922 231.027073 
L 377.210645 232.121477 
L 379.110219 232.995403 
L 384.808943 234.166404 
L 386.708517 235.027858 
L 392.407241 236.25488 
L 394.306815 237.23348 
L 396.20639 237.652837 
L 400.005539 238.083162 
L 401.905113 238.701352 
L 405.704262 239.241282 
L 407.603836 239.412286 
L 409.503411 239.746472 
L 415.202134 240.123501 
L 424.700007 240.417809 
L 436.097453 240.430392 
L 460.791922 240.227251 
L 479.787666 240.090984 
L 487.385964 239.96375 
L 494.984262 239.85735 
L 496.883836 239.714482 
L 498.783411 239.160621 
L 500.682985 238.450626 
L 504.482134 238.101293 
L 523.477879 238.031766 
L 544.373198 237.497725 
L 546.272773 237.354667 
L 548.172347 236.411635 
L 550.071922 234.930365 
L 551.971496 232.776117 
L 553.87107 228.383292 
L 555.770645 222.833333 
L 557.670219 216.845513 
L 565.268517 194.35383 
L 569.067666 182.929042 
L 570.967241 177.906834 
L 572.866815 175.315082 
L 574.76639 173.116752 
L 576.665964 170.668641 
L 578.565539 168.529257 
L 580.465113 166.686055 
L 582.364687 165.176769 
L 584.264262 164.014007 
L 588.063411 162.471998 
L 589.962985 161.449528 
L 591.86256 160.584069 
L 593.762134 160.272774 
L 599.460858 159.933627 
L 607.059156 160.427732 
L 608.95873 161.386951 
L 610.858305 162.888872 
L 612.757879 165.104404 
L 614.657453 169.530125 
L 616.557028 175.138037 
L 624.155326 199.722219 
L 629.854049 216.887088 
L 631.753624 221.902528 
L 633.653198 224.494749 
L 635.552773 226.697685 
L 637.452347 229.148516 
L 639.351922 231.287879 
L 641.251496 233.118398 
L 643.15107 234.57762 
L 645.050645 235.727044 
L 648.849794 237.329162 
L 650.749368 238.363463 
L 652.648943 239.206689 
L 654.548517 239.524761 
L 658.347666 239.746939 
L 660.247241 239.768558 
L 664.04639 239.495745 
L 665.945964 238.896167 
L 667.845539 237.826373 
L 669.745113 237.380784 
L 671.644688 237.193103 
L 673.544262 236.817939 
L 675.443836 236.152103 
L 677.343411 235.615717 
L 683.042134 234.877615 
L 686.841283 234.687194 
L 702.037879 234.30837 
L 705.837028 233.750085 
L 707.736602 233.337515 
L 709.636177 232.799241 
L 711.535751 230.557874 
L 713.435326 229.987305 
L 715.3349 228.83821 
L 717.234475 227.001614 
L 721.033624 227.069067 
L 724.832773 227.200965 
L 726.732347 227.455712 
L 728.631922 228.050873 
L 730.531496 227.979812 
L 732.43107 227.264682 
L 734.330645 226.712408 
L 736.230219 226.877779 
L 738.129794 226.411523 
L 740.029368 225.328067 
L 741.928943 225.126191 
L 745.728092 225.332248 
L 751.426815 225.342795 
L 759.025113 224.776876 
L 762.824262 224.885981 
L 766.623411 225.466979 
L 768.522985 225.879523 
L 770.42256 226.409985 
L 772.322134 228.657233 
L 774.221709 229.26232 
L 776.121283 230.463343 
L 778.020858 232.32483 
L 785.619156 232.619717 
L 787.51873 232.953539 
L 791.317879 233.93672 
L 795.117028 235.767222 
L 797.016602 236.270494 
L 798.916177 237.277702 
L 800.815751 238.622423 
L 802.715326 239.102007 
L 808.414049 239.282378 
L 812.213198 239.367341 
L 821.71107 240.178673 
L 829.309368 240.358395 
L 854.003836 240.541364 
L 897.694049 240.586478 
L 907.191922 240.517901 
L 907.191922 240.517901 
" clip-path="url(#p5cfd217405)" style="fill: none; stroke: #9467bd; stroke-width: 1.5; stroke-linecap: round"/>
   </g>
   <g id="line2d_17">
    <path d="M 46.684688 234.294083 
L 48.584262 235.476071 
L 50.483836 234.642411 
L 54.282985 233.945983 
L 56.18256 234.030032 
L 59.981709 233.489423 
L 61.881283 233.049075 
L 63.780858 232.825137 
L 67.580007 230.82581 
L 69.479581 227.915714 
L 71.379156 224.34766 
L 73.27873 218.355442 
L 77.077879 208.011876 
L 78.977453 205.459019 
L 80.877028 202.37448 
L 82.776602 198.455535 
L 84.676177 194.982421 
L 86.575751 192.540592 
L 88.475326 191.311712 
L 90.3749 190.330555 
L 92.274475 190.019676 
L 94.174049 190.569085 
L 97.973198 194.028185 
L 99.872773 195.63089 
L 101.772347 195.984944 
L 105.571496 197.70555 
L 111.270219 197.701755 
L 116.968943 197.821622 
L 122.667666 197.862664 
L 124.567241 198.020118 
L 126.466815 198.475771 
L 128.36639 199.074817 
L 130.265964 200.500377 
L 132.165539 202.408145 
L 135.964688 208.806868 
L 137.864262 212.309086 
L 139.763836 214.683189 
L 141.663411 217.510839 
L 145.46256 224.634343 
L 147.362134 227.686755 
L 151.161283 232.247222 
L 153.060858 234.025248 
L 154.960432 235.126097 
L 160.659156 235.081248 
L 162.55873 236.122174 
L 164.458305 236.715273 
L 166.357879 237.160874 
L 172.056602 237.720235 
L 175.855751 238.062159 
L 179.6549 238.518956 
L 183.454049 239.140476 
L 187.253198 239.429853 
L 194.851496 239.717788 
L 211.947666 240.383016 
L 221.445539 240.520006 
L 223.345113 240.325837 
L 225.244688 240.010403 
L 227.144262 239.436995 
L 229.043836 238.061451 
L 230.943411 235.15406 
L 232.842985 231.546709 
L 234.74256 227.107417 
L 236.642134 221.577612 
L 242.340858 203.55046 
L 248.039581 184.382661 
L 253.738305 165.56046 
L 261.336602 140.729863 
L 267.035326 122.745024 
L 270.834475 111.322835 
L 274.633624 100.705756 
L 278.432773 91.476345 
L 280.332347 87.763682 
L 282.231922 85.049362 
L 284.131496 84.577872 
L 286.03107 84.541441 
L 287.930645 84.888128 
L 289.830219 86.069698 
L 291.729794 88.886337 
L 293.629368 92.391781 
L 295.528943 96.802603 
L 297.428517 102.306283 
L 303.127241 120.306858 
L 306.92639 132.996721 
L 312.625113 151.250658 
L 320.223411 174.046803 
L 322.122985 179.086352 
L 327.821709 195.045021 
L 331.620858 204.714529 
L 335.420007 214.396269 
L 337.319581 218.168264 
L 339.219156 222.209146 
L 341.11873 225.589775 
L 343.018305 228.150992 
L 344.917879 228.532425 
L 346.817453 228.570566 
L 352.516177 228.341411 
L 356.315326 228.363298 
L 365.813198 228.255108 
L 373.411496 228.910283 
L 377.210645 230.044388 
L 381.009794 231.150546 
L 382.909368 232.255099 
L 386.708517 233.674993 
L 388.608092 234.280812 
L 390.507666 235.31912 
L 392.407241 236.033097 
L 396.20639 236.967944 
L 398.105964 237.862506 
L 400.005539 238.386021 
L 403.804688 238.971575 
L 411.402985 240.225 
L 415.202134 240.450537 
L 426.599581 240.660521 
L 443.695751 240.637294 
L 493.084687 240.669443 
L 510.180858 240.638708 
L 548.172347 240.469016 
L 570.967241 240.550578 
L 603.260007 240.726245 
L 626.0549 240.668909 
L 662.146815 240.501003 
L 664.04639 240.359141 
L 671.644688 240.166568 
L 677.343411 240.071944 
L 686.841283 240.011828 
L 721.033624 240.105426 
L 740.029368 240.643995 
L 760.924688 240.668618 
L 907.191922 240.766531 
L 907.191922 240.766531 
" clip-path="url(#p5cfd217405)" style="fill: none; stroke: #8c564b; stroke-width: 1.5; stroke-linecap: round"/>
   </g>
   <g id="line2d_18"/>
   <g id="line2d_19"/>
   <g id="line2d_20"/>
   <g id="line2d_21"/>
   <g id="line2d_22"/>
   <g id="line2d_23"/>
   <g id="patch_9">
    <path d="M 46.684688 240.782437 
L 46.684688 19.022437 
" style="fill: none; stroke: #cccccc; stroke-width: 0.8; stroke-linejoin: miter; stroke-linecap: square"/>
   </g>
   <g id="patch_10">
    <path d="M 939.484687 240.782437 
L 939.484687 19.022437 
" style="fill: none; stroke: #cccccc; stroke-width: 0.8; stroke-linejoin: miter; stroke-linecap: square"/>
   </g>
   <g id="patch_11">
    <path d="M 46.684688 240.782437 
L 939.484687 240.782437 
" style="fill: none; stroke: #cccccc; stroke-width: 0.8; stroke-linejoin: miter; stroke-linecap: square"/>
   </g>
   <g id="patch_12">
    <path d="M 46.684688 19.022437 
L 939.484687 19.022437 
" style="fill: none; stroke: #cccccc; stroke-width: 0.8; stroke-linejoin: miter; stroke-linecap: square"/>
   </g>
   <g id="text_14">
    <!-- Punch[100%] -->
    <g style="fill: #262626" transform="translate(47.498122 14.798437) scale(0.1 -0.1)">
     <defs>
      <path id="DejaVuSans-50" d="M 1259 4147 
L 1259 2394 
L 2053 2394 
Q 2494 2394 2734 2622 
Q 2975 2850 2975 3272 
Q 2975 3691 2734 3919 
Q 2494 4147 2053 4147 
L 1259 4147 
z
M 628 4666 
L 2053 4666 
Q 2838 4666 3239 4311 
Q 3641 3956 3641 3272 
Q 3641 2581 3239 2228 
Q 2838 1875 2053 1875 
L 1259 1875 
L 1259 0 
L 628 0 
L 628 4666 
z
" transform="scale(0.015625)"/>
      <path id="DejaVuSans-75" d="M 544 1381 
L 544 3500 
L 1119 3500 
L 1119 1403 
Q 1119 906 1312 657 
Q 1506 409 1894 409 
Q 2359 409 2629 706 
Q 2900 1003 2900 1516 
L 2900 3500 
L 3475 3500 
L 3475 0 
L 2900 0 
L 2900 538 
Q 2691 219 2414 64 
Q 2138 -91 1772 -91 
Q 1169 -91 856 284 
Q 544 659 544 1381 
z
M 1991 3584 
L 1991 3584 
z
" transform="scale(0.015625)"/>
      <path id="DejaVuSans-6e" d="M 3513 2113 
L 3513 0 
L 2938 0 
L 2938 2094 
Q 2938 2591 2744 2837 
Q 2550 3084 2163 3084 
Q 1697 3084 1428 2787 
Q 1159 2491 1159 1978 
L 1159 0 
L 581 0 
L 581 3500 
L 1159 3500 
L 1159 2956 
Q 1366 3272 1645 3428 
Q 1925 3584 2291 3584 
Q 2894 3584 3203 3211 
Q 3513 2838 3513 2113 
z
" transform="scale(0.015625)"/>
      <path id="DejaVuSans-68" d="M 3513 2113 
L 3513 0 
L 2938 0 
L 2938 2094 
Q 2938 2591 2744 2837 
Q 2550 3084 2163 3084 
Q 1697 3084 1428 2787 
Q 1159 2491 1159 1978 
L 1159 0 
L 581 0 
L 581 4863 
L 1159 4863 
L 1159 2956 
Q 1366 3272 1645 3428 
Q 1925 3584 2291 3584 
Q 2894 3584 3203 3211 
Q 3513 2838 3513 2113 
z
" transform="scale(0.015625)"/>
      <path id="DejaVuSans-5b" d="M 550 4863 
L 1875 4863 
L 1875 4416 
L 1125 4416 
L 1125 -397 
L 1875 -397 
L 1875 -844 
L 550 -844 
L 550 4863 
z
" transform="scale(0.015625)"/>
      <path id="DejaVuSans-25" d="M 4653 2053 
Q 4381 2053 4226 1822 
Q 4072 1591 4072 1178 
Q 4072 772 4226 539 
Q 4381 306 4653 306 
Q 4919 306 5073 539 
Q 5228 772 5228 1178 
Q 5228 1588 5073 1820 
Q 4919 2053 4653 2053 
z
M 4653 2450 
Q 5147 2450 5437 2106 
Q 5728 1763 5728 1178 
Q 5728 594 5436 251 
Q 5144 -91 4653 -91 
Q 4153 -91 3862 251 
Q 3572 594 3572 1178 
Q 3572 1766 3864 2108 
Q 4156 2450 4653 2450 
z
M 1428 4353 
Q 1159 4353 1004 4120 
Q 850 3888 850 3481 
Q 850 3069 1003 2837 
Q 1156 2606 1428 2606 
Q 1700 2606 1854 2837 
Q 2009 3069 2009 3481 
Q 2009 3884 1853 4118 
Q 1697 4353 1428 4353 
z
M 4250 4750 
L 4750 4750 
L 1831 -91 
L 1331 -91 
L 4250 4750 
z
M 1428 4750 
Q 1922 4750 2215 4408 
Q 2509 4066 2509 3481 
Q 2509 2891 2217 2550 
Q 1925 2209 1428 2209 
Q 931 2209 642 2551 
Q 353 2894 353 3481 
Q 353 4063 643 4406 
Q 934 4750 1428 4750 
z
" transform="scale(0.015625)"/>
      <path id="DejaVuSans-5d" d="M 1947 4863 
L 1947 -844 
L 622 -844 
L 622 -397 
L 1369 -397 
L 1369 4416 
L 622 4416 
L 622 4863 
L 1947 4863 
z
" transform="scale(0.015625)"/>
     </defs>
     <use xlink:href="#DejaVuSans-50"/>
     <use xlink:href="#DejaVuSans-75" x="58.552734"/>
     <use xlink:href="#DejaVuSans-6e" x="121.931641"/>
     <use xlink:href="#DejaVuSans-63" x="185.310547"/>
     <use xlink:href="#DejaVuSans-68" x="240.291016"/>
     <use xlink:href="#DejaVuSans-5b" x="303.669922"/>
     <use xlink:href="#DejaVuSans-31" x="342.683594"/>
     <use xlink:href="#DejaVuSans-30" x="406.306641"/>
     <use xlink:href="#DejaVuSans-30" x="469.929688"/>
     <use xlink:href="#DejaVuSans-25" x="533.552734"/>
     <use xlink:href="#DejaVuSans-5d" x="628.572266"/>
    </g>
   </g>
   <g id="text_15">
    <!-- Push[86%] -->
    <g style="fill: #262626" transform="translate(252.498185 14.798437) scale(0.1 -0.1)">
     <use xlink:href="#DejaVuSans-50"/>
     <use xlink:href="#DejaVuSans-75" x="58.552734"/>
     <use xlink:href="#DejaVuSans-73" x="121.931641"/>
     <use xlink:href="#DejaVuSans-68" x="174.03125"/>
     <use xlink:href="#DejaVuSans-5b" x="237.410156"/>
     <use xlink:href="#DejaVuSans-38" x="276.423828"/>
     <use xlink:href="#DejaVuSans-36" x="340.046875"/>
     <use xlink:href="#DejaVuSans-25" x="403.669922"/>
     <use xlink:href="#DejaVuSans-5d" x="498.689453"/>
    </g>
   </g>
   <g id="text_16">
    <!-- Shake[100%] -->
    <g style="fill: #262626" transform="translate(386.55732 14.798437) scale(0.1 -0.1)">
     <defs>
      <path id="DejaVuSans-6b" d="M 581 4863 
L 1159 4863 
L 1159 1991 
L 2875 3500 
L 3609 3500 
L 1753 1863 
L 3688 0 
L 2938 0 
L 1159 1709 
L 1159 0 
L 581 0 
L 581 4863 
z
" transform="scale(0.015625)"/>
     </defs>
     <use xlink:href="#DejaVuSans-53"/>
     <use xlink:href="#DejaVuSans-68" x="63.476562"/>
     <use xlink:href="#DejaVuSans-61" x="126.855469"/>
     <use xlink:href="#DejaVuSans-6b" x="188.134766"/>
     <use xlink:href="#DejaVuSans-65" x="242.419922"/>
     <use xlink:href="#DejaVuSans-5b" x="303.943359"/>
     <use xlink:href="#DejaVuSans-31" x="342.957031"/>
     <use xlink:href="#DejaVuSans-30" x="406.580078"/>
     <use xlink:href="#DejaVuSans-30" x="470.203125"/>
     <use xlink:href="#DejaVuSans-25" x="533.826172"/>
     <use xlink:href="#DejaVuSans-5d" x="628.845703"/>
    </g>
   </g>
   <g id="text_17">
    <!-- Kick[90%] -->
    <g style="fill: #262626" transform="translate(529.493514 14.798437) scale(0.1 -0.1)">
     <defs>
      <path id="DejaVuSans-4b" d="M 628 4666 
L 1259 4666 
L 1259 2694 
L 3353 4666 
L 4166 4666 
L 1850 2491 
L 4331 0 
L 3500 0 
L 1259 2247 
L 1259 0 
L 628 0 
L 628 4666 
z
" transform="scale(0.015625)"/>
      <path id="DejaVuSans-69" d="M 603 3500 
L 1178 3500 
L 1178 0 
L 603 0 
L 603 3500 
z
M 603 4863 
L 1178 4863 
L 1178 4134 
L 603 4134 
L 603 4863 
z
" transform="scale(0.015625)"/>
      <path id="DejaVuSans-39" d="M 703 97 
L 703 672 
Q 941 559 1184 500 
Q 1428 441 1663 441 
Q 2288 441 2617 861 
Q 2947 1281 2994 2138 
Q 2813 1869 2534 1725 
Q 2256 1581 1919 1581 
Q 1219 1581 811 2004 
Q 403 2428 403 3163 
Q 403 3881 828 4315 
Q 1253 4750 1959 4750 
Q 2769 4750 3195 4129 
Q 3622 3509 3622 2328 
Q 3622 1225 3098 567 
Q 2575 -91 1691 -91 
Q 1453 -91 1209 -44 
Q 966 3 703 97 
z
M 1959 2075 
Q 2384 2075 2632 2365 
Q 2881 2656 2881 3163 
Q 2881 3666 2632 3958 
Q 2384 4250 1959 4250 
Q 1534 4250 1286 3958 
Q 1038 3666 1038 3163 
Q 1038 2656 1286 2365 
Q 1534 2075 1959 2075 
z
" transform="scale(0.015625)"/>
     </defs>
     <use xlink:href="#DejaVuSans-4b"/>
     <use xlink:href="#DejaVuSans-69" x="65.576172"/>
     <use xlink:href="#DejaVuSans-63" x="93.359375"/>
     <use xlink:href="#DejaVuSans-6b" x="148.339844"/>
     <use xlink:href="#DejaVuSans-5b" x="206.25"/>
     <use xlink:href="#DejaVuSans-39" x="245.263672"/>
     <use xlink:href="#DejaVuSans-30" x="308.886719"/>
     <use xlink:href="#DejaVuSans-25" x="372.509766"/>
     <use xlink:href="#DejaVuSans-5d" x="467.529297"/>
    </g>
   </g>
   <g id="text_18">
    <!-- Hug[63%] -->
    <g style="fill: #262626" transform="translate(707.313102 14.798437) scale(0.1 -0.1)">
     <defs>
      <path id="DejaVuSans-48" d="M 628 4666 
L 1259 4666 
L 1259 2753 
L 3553 2753 
L 3553 4666 
L 4184 4666 
L 4184 0 
L 3553 0 
L 3553 2222 
L 1259 2222 
L 1259 0 
L 628 0 
L 628 4666 
z
" transform="scale(0.015625)"/>
      <path id="DejaVuSans-67" d="M 2906 1791 
Q 2906 2416 2648 2759 
Q 2391 3103 1925 3103 
Q 1463 3103 1205 2759 
Q 947 2416 947 1791 
Q 947 1169 1205 825 
Q 1463 481 1925 481 
Q 2391 481 2648 825 
Q 2906 1169 2906 1791 
z
M 3481 434 
Q 3481 -459 3084 -895 
Q 2688 -1331 1869 -1331 
Q 1566 -1331 1297 -1286 
Q 1028 -1241 775 -1147 
L 775 -588 
Q 1028 -725 1275 -790 
Q 1522 -856 1778 -856 
Q 2344 -856 2625 -561 
Q 2906 -266 2906 331 
L 2906 616 
Q 2728 306 2450 153 
Q 2172 0 1784 0 
Q 1141 0 747 490 
Q 353 981 353 1791 
Q 353 2603 747 3093 
Q 1141 3584 1784 3584 
Q 2172 3584 2450 3431 
Q 2728 3278 2906 2969 
L 2906 3500 
L 3481 3500 
L 3481 434 
z
" transform="scale(0.015625)"/>
     </defs>
     <use xlink:href="#DejaVuSans-48"/>
     <use xlink:href="#DejaVuSans-75" x="75.195312"/>
     <use xlink:href="#DejaVuSans-67" x="138.574219"/>
     <use xlink:href="#DejaVuSans-5b" x="202.050781"/>
     <use xlink:href="#DejaVuSans-36" x="241.064453"/>
     <use xlink:href="#DejaVuSans-33" x="304.6875"/>
     <use xlink:href="#DejaVuSans-25" x="368.310547"/>
     <use xlink:href="#DejaVuSans-5d" x="463.330078"/>
    </g>
   </g>
   <g id="text_19">
    <!-- Point[100%] -->
    <g style="fill: #262626" transform="translate(830.995103 14.798437) scale(0.1 -0.1)">
     <defs>
      <path id="DejaVuSans-74" d="M 1172 4494 
L 1172 3500 
L 2356 3500 
L 2356 3053 
L 1172 3053 
L 1172 1153 
Q 1172 725 1289 603 
Q 1406 481 1766 481 
L 2356 481 
L 2356 0 
L 1766 0 
Q 1100 0 847 248 
Q 594 497 594 1153 
L 594 3053 
L 172 3053 
L 172 3500 
L 594 3500 
L 594 4494 
L 1172 4494 
z
" transform="scale(0.015625)"/>
     </defs>
     <use xlink:href="#DejaVuSans-50"/>
     <use xlink:href="#DejaVuSans-6f" x="56.677734"/>
     <use xlink:href="#DejaVuSans-69" x="117.859375"/>
     <use xlink:href="#DejaVuSans-6e" x="145.642578"/>
     <use xlink:href="#DejaVuSans-74" x="209.021484"/>
     <use xlink:href="#DejaVuSans-5b" x="248.230469"/>
     <use xlink:href="#DejaVuSans-31" x="287.244141"/>
     <use xlink:href="#DejaVuSans-30" x="350.867188"/>
     <use xlink:href="#DejaVuSans-30" x="414.490234"/>
     <use xlink:href="#DejaVuSans-25" x="478.113281"/>
     <use xlink:href="#DejaVuSans-5d" x="573.132812"/>
    </g>
   </g>
   <g id="legend_1">
    <g id="patch_13">
     <path d="M 870.089375 235.782437 
L 932.484687 235.782437 
Q 934.484687 235.782437 934.484687 233.782437 
L 934.484687 146.713687 
Q 934.484687 144.713687 932.484687 144.713687 
L 870.089375 144.713687 
Q 868.089375 144.713687 868.089375 146.713687 
L 868.089375 233.782437 
Q 868.089375 235.782437 870.089375 235.782437 
z
" style="fill: #ffffff; opacity: 0.8; stroke: #cccccc; stroke-linejoin: miter"/>
    </g>
    <g id="line2d_24">
     <path d="M 872.089375 152.812125 
L 882.089375 152.812125 
L 892.089375 152.812125 
" style="fill: none; stroke: #1f77b4; stroke-width: 1.5; stroke-linecap: round"/>
    </g>
    <g id="text_20">
     <!-- Shake -->
     <g style="fill: #262626" transform="translate(900.089375 156.312125) scale(0.1 -0.1)">
      <use xlink:href="#DejaVuSans-53"/>
      <use xlink:href="#DejaVuSans-68" x="63.476562"/>
      <use xlink:href="#DejaVuSans-61" x="126.855469"/>
      <use xlink:href="#DejaVuSans-6b" x="188.134766"/>
      <use xlink:href="#DejaVuSans-65" x="242.419922"/>
     </g>
    </g>
    <g id="line2d_25">
     <path d="M 872.089375 167.49025 
L 882.089375 167.49025 
L 892.089375 167.49025 
" style="fill: none; stroke: #ff7f0e; stroke-width: 1.5; stroke-linecap: round"/>
    </g>
    <g id="text_21">
     <!-- Hug -->
     <g style="fill: #262626" transform="translate(900.089375 170.99025) scale(0.1 -0.1)">
      <use xlink:href="#DejaVuSans-48"/>
      <use xlink:href="#DejaVuSans-75" x="75.195312"/>
      <use xlink:href="#DejaVuSans-67" x="138.574219"/>
     </g>
    </g>
    <g id="line2d_26">
     <path d="M 872.089375 182.168375 
L 882.089375 182.168375 
L 892.089375 182.168375 
" style="fill: none; stroke: #2ca02c; stroke-width: 1.5; stroke-linecap: round"/>
    </g>
    <g id="text_22">
     <!-- Kick -->
     <g style="fill: #262626" transform="translate(900.089375 185.668375) scale(0.1 -0.1)">
      <use xlink:href="#DejaVuSans-4b"/>
      <use xlink:href="#DejaVuSans-69" x="65.576172"/>
      <use xlink:href="#DejaVuSans-63" x="93.359375"/>
      <use xlink:href="#DejaVuSans-6b" x="148.339844"/>
     </g>
    </g>
    <g id="line2d_27">
     <path d="M 872.089375 196.8465 
L 882.089375 196.8465 
L 892.089375 196.8465 
" style="fill: none; stroke: #d62728; stroke-width: 1.5; stroke-linecap: round"/>
    </g>
    <g id="text_23">
     <!-- Point -->
     <g style="fill: #262626" transform="translate(900.089375 200.3465) scale(0.1 -0.1)">
      <use xlink:href="#DejaVuSans-50"/>
      <use xlink:href="#DejaVuSans-6f" x="56.677734"/>
      <use xlink:href="#DejaVuSans-69" x="117.859375"/>
      <use xlink:href="#DejaVuSans-6e" x="145.642578"/>
      <use xlink:href="#DejaVuSans-74" x="209.021484"/>
     </g>
    </g>
    <g id="line2d_28">
     <path d="M 872.089375 211.524625 
L 882.089375 211.524625 
L 892.089375 211.524625 
" style="fill: none; stroke: #9467bd; stroke-width: 1.5; stroke-linecap: round"/>
    </g>
    <g id="text_24">
     <!-- Punch -->
     <g style="fill: #262626" transform="translate(900.089375 215.024625) scale(0.1 -0.1)">
      <use xlink:href="#DejaVuSans-50"/>
      <use xlink:href="#DejaVuSans-75" x="58.552734"/>
      <use xlink:href="#DejaVuSans-6e" x="121.931641"/>
      <use xlink:href="#DejaVuSans-63" x="185.310547"/>
      <use xlink:href="#DejaVuSans-68" x="240.291016"/>
     </g>
    </g>
    <g id="line2d_29">
     <path d="M 872.089375 226.20275 
L 882.089375 226.20275 
L 892.089375 226.20275 
" style="fill: none; stroke: #8c564b; stroke-width: 1.5; stroke-linecap: round"/>
    </g>
    <g id="text_25">
     <!-- Push -->
     <g style="fill: #262626" transform="translate(900.089375 229.70275) scale(0.1 -0.1)">
      <use xlink:href="#DejaVuSans-50"/>
      <use xlink:href="#DejaVuSans-75" x="58.552734"/>
      <use xlink:href="#DejaVuSans-73" x="121.931641"/>
      <use xlink:href="#DejaVuSans-68" x="174.03125"/>
     </g>
    </g>
   </g>
  </g>
 </g>
 <defs>
  <clipPath id="p5cfd217405">
   <rect x="46.684688" y="19.022437" width="892.8" height="221.76"/>
  </clipPath>
 </defs>
</svg>
